<svg
  xmlns="http://www.w3.org/2000/svg"
  width="45"
  height="45"
  viewBox="0 0 45 45"
>
  <g
    id="Group_1287"
    data-name="Group 1287"
    transform="translate(-618.137 -418.033)"
  >
    <g
      id="Path_493"
      data-name="Path 493"
      transform="translate(618.137 418.033)"
      fill="#fff"
      opacity="0.7"
    >
      <path
        d="M 22.5 44.5 C 19.52980041503906 44.5 16.64871025085449 43.91838836669922 13.93675994873047 42.77133941650391 C 11.31707000732422 41.66329956054688 8.964249610900879 40.07695007324219 6.943649768829346 38.05635070800781 C 4.923049926757812 36.03575134277344 3.336699962615967 33.68292999267578 2.228660106658936 31.06324005126953 C 1.081609964370728 28.35128974914551 0.5 25.47019958496094 0.5 22.5 C 0.5 19.52980041503906 1.081609964370728 16.64871025085449 2.228660106658936 13.93675994873047 C 3.336699962615967 11.31707000732422 4.923049926757812 8.964249610900879 6.943649768829346 6.943649768829346 C 8.964249610900879 4.923049926757812 11.31707000732422 3.336699962615967 13.93675994873047 2.228660106658936 C 16.64871025085449 1.081609964370728 19.52980041503906 0.5 22.5 0.5 C 25.47019958496094 0.5 28.35128974914551 1.081609964370728 31.06324005126953 2.228660106658936 C 33.68292999267578 3.336699962615967 36.03575134277344 4.923049926757812 38.05635070800781 6.943649768829346 C 40.07695007324219 8.964249610900879 41.66329956054688 11.31707000732422 42.77133941650391 13.93675994873047 C 43.91838836669922 16.64871025085449 44.5 19.52980041503906 44.5 22.5 C 44.5 25.30487060546875 43.97566986083984 28.03420066833496 42.94157028198242 30.61218070983887 C 41.93292999267578 33.126708984375 40.4559211730957 35.45925140380859 38.55155944824219 37.54500961303711 C 36.63093948364258 39.65155029296875 34.19631958007812 41.39680862426758 31.51066970825195 42.59236145019531 C 28.66716003417969 43.85818099975586 25.63553047180176 44.5 22.5 44.5 Z"
        stroke="none"
      />
      <path
        d="M 22.5 1 C 19.59708023071289 1 16.78152084350586 1.568321228027344 14.13154029846191 2.689170837402344 C 11.57144927978516 3.771991729736328 9.272048950195312 5.322360992431641 7.297199249267578 7.297199249267578 C 5.322360992431641 9.272048950195312 3.771991729736328 11.57144927978516 2.689170837402344 14.13154029846191 C 1.568321228027344 16.78152084350586 1 19.59708023071289 1 22.5 C 1 25.40291976928711 1.568321228027344 28.21847915649414 2.689170837402344 30.86845970153809 C 3.771991729736328 33.42855072021484 5.322360992431641 35.72795104980469 7.297199249267578 37.70280075073242 C 9.272048950195312 39.67763900756836 11.57144927978516 41.22800827026367 14.13154029846191 42.31082916259766 C 16.78152084350586 43.43167877197266 19.59708023071289 44 22.5 44 C 25.56501960754395 44 28.52823066711426 43.37271881103516 31.30731964111328 42.13557052612305 C 33.93041229248047 40.96786880493164 36.30759048461914 39.26408004760742 38.18231964111328 37.20787811279297 C 41.98828125 33.03936767578125 44 27.95347023010254 44 22.5 C 44 19.59708023071289 43.43167877197266 16.78152084350586 42.31082916259766 14.13154029846191 C 41.22800827026367 11.57144927978516 39.67763900756836 9.272048950195312 37.70280075073242 7.297199249267578 C 35.72795104980469 5.322360992431641 33.42855072021484 3.771991729736328 30.86845970153809 2.689170837402344 C 28.21847915649414 1.568321228027344 25.40291976928711 1 22.5 1 M 22.5 0 C 34.92641067504883 0 45 10.07358932495117 45 22.5 C 45 28.34041023254395 42.77473831176758 33.66109085083008 38.92081069946289 37.88214111328125 C 35.01107788085938 42.17033004760742 29.08599090576172 45 22.5 45 C 10.07358932495117 45 0 34.92641067504883 0 22.5 C 0 10.07358932495117 10.07358932495117 0 22.5 0 Z"
        stroke="none"
        fill="#28c76f"
      />
    </g>
    <path
      id="Union_52"
      data-name="Union 52"
      d="M6.5,6.5h0v0h0v0Z"
      transform="translate(634.134 434.021)"
      fill="none"
      stroke="#28c76f"
      stroke-linecap="round"
      stroke-linejoin="round"
      stroke-width="1"
    />
    <line
      id="Line_87"
      data-name="Line 87"
      x2="13"
      transform="translate(634.134 440.521)"
      fill="none"
      stroke="#28c76f"
      stroke-linecap="round"
      stroke-linejoin="round"
      stroke-width="1"
    />
    <line
      id="Line_88"
      data-name="Line 88"
      x2="13"
      transform="translate(640.634 434.021) rotate(90)"
      fill="none"
      stroke="#28c76f"
      stroke-linecap="round"
      stroke-linejoin="round"
      stroke-width="1"
    />
  </g>
</svg>
