<svg xmlns="http://www.w3.org/2000/svg" width="16.726" height="16.716" viewBox="0 0 16.726 16.716">
  <path id="tuichudenglu" d="M80.726,72.875l-2.7,2.7-.9-.9,1.124-1.125h-5.89V72.358h6.077l-1.311-1.311.9-.9,2.7,2.7-.013.014ZM75.94,66.388a1.194,1.194,0,0,0-1.194-1.194H66.388a1.194,1.194,0,0,0-1.194,1.194v11.94a1.194,1.194,0,0,0,1.194,1.194h8.358a1.194,1.194,0,0,0,1.194-1.194V77.134h1.194v1.194a2.388,2.388,0,0,1-2.388,2.388H66.388A2.388,2.388,0,0,1,64,78.328V66.388A2.388,2.388,0,0,1,66.388,64h8.358a2.388,2.388,0,0,1,2.388,2.388v2.388H75.94Z" transform="translate(-64 -64)" fill="#535353"/>
</svg>
