<svg xmlns="http://www.w3.org/2000/svg" width="20.676" height="24.587" viewBox="0 0 20.676 24.587">
  <g id="notification" transform="translate(-47.165 0.5)">
    <g id="Group_932" data-name="Group 932" transform="translate(42.675)">
      <g id="Group_931" data-name="Group 931" transform="translate(5)">
        <path id="Path_457" data-name="Path 457" d="M62.26,19.895l-1.687-2.813a8.355,8.355,0,0,1-1.191-4.3V10.319a6.888,6.888,0,0,0-4.914-6.59V1.966a1.966,1.966,0,0,0-3.931,0V3.73a6.888,6.888,0,0,0-4.914,6.59v2.464a8.36,8.36,0,0,1-1.19,4.3l-1.687,2.813a.492.492,0,0,0,.421.745H61.839a.491.491,0,0,0,.422-.744Z" transform="translate(-42.675)" fill="none" stroke="#707070" stroke-width="1"/>
      </g>
    </g>
    <g id="Group_934" data-name="Group 934" transform="translate(54.408 21.621)">
      <g id="Group_933" data-name="Group 933" transform="translate(0)">
        <path id="Path_458" data-name="Path 458" d="M188.815,469.333a3.419,3.419,0,0,0,6.19,0Z" transform="translate(-188.815 -469.333)" fill="none" stroke="#707070" stroke-width="1"/>
      </g>
    </g>
  </g>
</svg>
